# xmcd
#
# Track frame offsets:
# 150
# 19675
# 44622
# 63012
# 88305
# 110481
# 130073
# 149740
# 169114
#
# Disc length: 2467 seconds
#
#
# Revision: 0
# Processed by: cddbd v1.5.2PL0 Copyright (c) Steve Scherf et al.
# Submitted via: FreeRIP 2.945 
#
DISCID=7e09a109
DTITLE=Peabo Bryson - Take No Prisoners
DYEAR=1900
DGENRE=R&B
TTITLE0=Take No Prisoners
TTITLE1=There's Nothing Out There
TTITLE2=Let's Apologize
TTITLE3=Irrestible
TTITLE4=Love Always Finds A Way
TTITLE5=Falling For You
TTITLE6=I'm In love
TTITLE7=When You Talk To Me
TTITLE8=She's Over Me
EXTD=
EXTT0=
EXTT1=
EXTT2=
EXTT3=
EXTT4=
EXTT5=
EXTT6=
EXTT7=
EXTT8=
PLAYORDER=
